<svg xmlns="http://www.w3.org/2000/svg" xmlns:xlink="http://www.w3.org/1999/xlink" version="1.1" width="256" height="256" viewBox="0 0 256 256" xml:space="preserve">
<g style="stroke: none; stroke-width: 0; stroke-dasharray: none; stroke-linecap: butt; stroke-linejoin: miter; stroke-miterlimit: 10; fill: none; fill-rule: nonzero; opacity: 1;" transform="translate(1.4065934065934016 1.4065934065934016) scale(2.81 2.81)">
	<path d="M 57.199 65.592 c -7.309 0 -14.619 -2.782 -20.183 -8.347 c -11.13 -11.13 -11.13 -29.24 0 -40.369 c 11.13 -11.131 29.241 -11.129 40.368 0 c 11.129 11.129 11.129 29.239 0 40.369 C 71.818 62.809 64.508 65.592 57.199 65.592 z M 57.199 14.526 c -5.773 0 -11.546 2.198 -15.941 6.593 c -8.79 8.79 -8.79 23.093 0 31.884 c 8.791 8.789 23.093 8.787 31.883 0 c 8.789 -8.791 8.79 -23.094 0 -31.884 C 68.745 16.723 62.972 14.526 57.199 14.526 z" style="stroke: none; stroke-width: 1; stroke-dasharray: none; stroke-linecap: butt; stroke-linejoin: miter; stroke-miterlimit: 10; fill: rgb(0,0,0); fill-rule: nonzero; opacity: 1;" transform=" matrix(1 0 0 1 0 0) " stroke-linecap="round"/>
	<path d="M 13.098 90 c -2.264 0 -4.529 -0.862 -6.253 -2.586 c -1.67 -1.67 -2.59 -3.892 -2.59 -6.253 c 0 -2.362 0.92 -4.583 2.59 -6.253 l 26.512 -26.512 c 1.171 -1.173 3.071 -1.171 4.243 0 c 1.171 1.171 1.171 3.071 0 4.242 L 11.088 79.15 c -0.537 0.537 -0.833 1.251 -0.833 2.011 c 0 0.76 0.296 1.474 0.833 2.011 c 1.108 1.107 2.912 1.107 4.021 0 l 26.473 -26.475 c 1.172 -1.172 3.072 -1.172 4.243 0 c 1.171 1.171 1.171 3.07 0 4.242 L 19.352 87.414 C 17.628 89.138 15.363 90 13.098 90 z" style="stroke: none; stroke-width: 1; stroke-dasharray: none; stroke-linecap: butt; stroke-linejoin: miter; stroke-miterlimit: 10; fill: rgb(0,0,0); fill-rule: nonzero; opacity: 1;" transform=" matrix(1 0 0 1 0 0) " stroke-linecap="round"/>
	<path d="M 65.043 28.228 c -0.571 0 -1.149 -0.163 -1.66 -0.504 c -3.224 -2.148 -7.259 -2.493 -10.791 -0.924 c -1.516 0.67 -3.286 -0.012 -3.959 -1.525 c -0.672 -1.515 0.011 -3.287 1.525 -3.96 c 5.419 -2.406 11.609 -1.879 16.551 1.415 c 1.379 0.918 1.752 2.781 0.834 4.16 C 66.965 27.758 66.012 28.228 65.043 28.228 z" style="stroke: none; stroke-width: 1; stroke-dasharray: none; stroke-linecap: butt; stroke-linejoin: miter; stroke-miterlimit: 10; fill: rgb(0,0,0); fill-rule: nonzero; opacity: 1;" transform=" matrix(1 0 0 1 0 0) " stroke-linecap="round"/>
	<path d="M 57.146 54.283 c -2.384 0 -4.767 -0.492 -6.989 -1.478 c -1.514 -0.672 -2.197 -2.444 -1.525 -3.959 c 0.671 -1.514 2.443 -2.199 3.959 -1.525 c 2.895 1.283 6.214 1.283 9.109 0 c 4.369 -1.939 7.035 -6.44 6.636 -11.201 c -0.139 -1.651 1.087 -3.102 2.738 -3.24 c 1.644 -0.14 3.102 1.087 3.24 2.738 c 0.614 7.305 -3.478 14.212 -10.181 17.187 C 61.914 53.79 59.53 54.283 57.146 54.283 z" style="stroke: none; stroke-width: 1; stroke-dasharray: none; stroke-linecap: butt; stroke-linejoin: miter; stroke-miterlimit: 10; fill: rgb(0,0,0); fill-rule: nonzero; opacity: 1;" transform=" matrix(1 0 0 1 0 0) " stroke-linecap="round"/>
	<path d="M 13.594 60.711 H 7.255 c -1.657 0 -3 -1.343 -3 -3 c 0 -1.657 1.343 -3 3 -3 h 6.339 c 1.657 0 3 1.343 3 3 C 16.594 59.368 15.251 60.711 13.594 60.711 z" style="stroke: none; stroke-width: 1; stroke-dasharray: none; stroke-linecap: butt; stroke-linejoin: miter; stroke-miterlimit: 10; fill: rgb(0,0,0); fill-rule: nonzero; opacity: 1;" transform=" matrix(1 0 0 1 0 0) " stroke-linecap="round"/>
	<path d="M 21.553 42.474 H 7.255 c -1.657 0 -3 -1.343 -3 -3 s 1.343 -3 3 -3 h 14.297 c 1.657 0 3 1.343 3 3 S 23.21 42.474 21.553 42.474 z" style="stroke: none; stroke-width: 1; stroke-dasharray: none; stroke-linecap: butt; stroke-linejoin: miter; stroke-miterlimit: 10; fill: rgb(0,0,0); fill-rule: nonzero; opacity: 1;" transform=" matrix(1 0 0 1 0 0) " stroke-linecap="round"/>
	<path d="M 23.069 24.237 H 7.255 c -1.657 0 -3 -1.343 -3 -3 c 0 -1.657 1.343 -3 3 -3 h 15.814 c 1.657 0 3 1.343 3 3 C 26.069 22.894 24.726 24.237 23.069 24.237 z" style="stroke: none; stroke-width: 1; stroke-dasharray: none; stroke-linecap: butt; stroke-linejoin: miter; stroke-miterlimit: 10; fill: rgb(0,0,0); fill-rule: nonzero; opacity: 1;" transform=" matrix(1 0 0 1 0 0) " stroke-linecap="round"/>
	<path d="M 82.745 6 H 7.255 c -1.657 0 -3 -1.343 -3 -3 s 1.343 -3 3 -3 h 75.489 c 1.657 0 3 1.343 3 3 S 84.402 6 82.745 6 z" style="stroke: none; stroke-width: 1; stroke-dasharray: none; stroke-linecap: butt; stroke-linejoin: miter; stroke-miterlimit: 10; fill: rgb(0,0,0); fill-rule: nonzero; opacity: 1;" transform=" matrix(1 0 0 1 0 0) " stroke-linecap="round"/>
</g>
</svg>